<svg xmlns="http://www.w3.org/2000/svg" viewBox="0 0 24 24">
  <!-- folder outline + download arrow -->
  <path d="M3 7h6l2 2h10v8a2 2 0 0 1-2 2H5a2 2 0 0 1-2-2z" stroke="currentColor" stroke-width="2" fill="none" stroke-linejoin="round"/>
  <path d="M12 10v6" stroke="currentColor" stroke-width="2" stroke-linecap="round"/>
  <path d="M9.5 13.5L12 16l2.5-2.5" stroke="currentColor" stroke-width="2" stroke-linecap="round" stroke-linejoin="round"/>
  
  <circle cx="17" cy="7" r="2.1" stroke="currentColor" stroke-width="1.6" fill="none"/>
  <g stroke="currentColor" stroke-width="1.4" stroke-linecap="round">
    <line x1="17" y1="3.5" x2="17" y2="2.4"/>
    <line x1="20.5" y1="7" x2="21.6" y2="7"/>
    <line x1="17" y1="10.5" x2="17" y2="11.6"/>
    <line x1="13.5" y1="7" x2="12.4" y2="7"/>
    <line x1="19.0" y1="5.0" x2="19.8" y2="4.2"/>
    <line x1="15.0" y1="9.0" x2="14.2" y2="9.8"/>
    <line x1="19.0" y1="9.0" x2="19.8" y2="9.8"/>
    <line x1="15.0" y1="5.0" x2="14.2" y2="4.2"/>
  </g>

</svg>
